HIERARCHY
ROOT joint_Root
{
  OFFSET 0 0 0
  CHANNELS 6 Xposition Yposition Zposition Zrotation Xrotation Yrotation
  JOINT Hips
  {
    OFFSET 0 93.9241 -3
    CHANNELS 6 Xposition Yposition Zposition Zrotation Xrotation Yrotation
    JOINT Spine
    {
      OFFSET 15.7357 0 0
      CHANNELS 6 Xposition Yposition Zposition Zrotation Xrotation Yrotation
      JOINT Chest
      {
        OFFSET 8.98455 -0.406207 0
        CHANNELS 6 Xposition Yposition Zposition Zrotation Xrotation Yrotation
        JOINT Neck
        {
          OFFSET 16.3773 0 0
          CHANNELS 6 Xposition Yposition Zposition Zrotation Xrotation Yrotation
          JOINT Head
          {
            OFFSET 6.45672 0 0
            CHANNELS 6 Xposition Yposition Zposition Zrotation Xrotation Yrotation
            End Site
            {
              OFFSET 0 0 0
            }
          }
        }
        JOINT Shoulder_L
        {
          OFFSET 12.9942 -0.242716 4.98039
          CHANNELS 6 Xposition Yposition Zposition Zrotation Xrotation Yrotation
          JOINT UpperArm_L
          {
            OFFSET 5.34809 0 0
            CHANNELS 6 Xposition Yposition Zposition Zrotation Xrotation Yrotation
            JOINT LowerArm_L
            {
              OFFSET 24.3286 1.87007e-05 0
              CHANNELS 6 Xposition Yposition Zposition Zrotation Xrotation Yrotation
              JOINT Hand_L
              {
                OFFSET 22.2916 0 0
                CHANNELS 6 Xposition Yposition Zposition Zrotation Xrotation Yrotation
                End Site
                {
                  OFFSET 0 0 0
                }
              }
            }
          }
        }
        JOINT Shoulder_R
        {
          OFFSET 12.9945 -0.242716 -4.98039
          CHANNELS 6 Xposition Yposition Zposition Zrotation Xrotation Yrotation
          JOINT UpperArm_R
          {
            OFFSET -5.34813 0 0
            CHANNELS 6 Xposition Yposition Zposition Zrotation Xrotation Yrotation
            JOINT LowerArm_R
            {
              OFFSET -24.3289 0.000322201 0
              CHANNELS 6 Xposition Yposition Zposition Zrotation Xrotation Yrotation
              JOINT Hand_R
              {
                OFFSET -22.2915 -0.000108084 0
                CHANNELS 6 Xposition Yposition Zposition Zrotation Xrotation Yrotation
                End Site
                {
                  OFFSET 0 0 0
                }
              }
            }
          }
        }
      }
    }
    JOINT UpperLeg_L
    {
      OFFSET -2.19248 -6.46944 0
      CHANNELS 6 Xposition Yposition Zposition Zrotation Xrotation Yrotation
      JOINT LowerLeg_L
      {
        OFFSET 39.0811 0 -1.23785e-05
        CHANNELS 6 Xposition Yposition Zposition Zrotation Xrotation Yrotation
        JOINT Foot_L
        {
          OFFSET 40.9854 0 -1.26872e-05
          CHANNELS 6 Xposition Yposition Zposition Zrotation Xrotation Yrotation
          JOINT Toes_L
          {
            OFFSET 11.7543 0 0
            CHANNELS 6 Xposition Yposition Zposition Zrotation Xrotation Yrotation
            End Site
            {
              OFFSET 0 0 0
            }
          }
        }
      }
    }
    JOINT UpperLeg_R
    {
      OFFSET -2.19251 6.46944 0
      CHANNELS 6 Xposition Yposition Zposition Zrotation Xrotation Yrotation
      JOINT LowerLeg_R
      {
        OFFSET -39.0811 -0.00228153 -0.0401928
        CHANNELS 6 Xposition Yposition Zposition Zrotation Xrotation Yrotation
        JOINT Foot_R
        {
          OFFSET -40.9854 0 0
          CHANNELS 6 Xposition Yposition Zposition Zrotation Xrotation Yrotation
          JOINT Toes_R
          {
            OFFSET -11.7543 0 0
            CHANNELS 6 Xposition Yposition Zposition Zrotation Xrotation Yrotation
            End Site
            {
              OFFSET 0 0 0
            }
          }
        }
      }
    }
  }
}
MOTION
Frames:	5
Frame Time:	0.0333333
0 0 0 0 0 -0 -1.75758 92.8039 -10.2768 90.1655 -1.17179 -5.43856 15.7357 5.1072e-06 -5.51765e-07 91.2347 75.0789 -91.3698 8.98455 -0.406207 -4.3199e-07 22.071 0.608996 -0.390107 16.3773 -1.3905e-06 -6.99897e-07 14.4907 0.0253504 -0.242163 6.45672 -1.25837e-06 -1.02172e-07 21.1939 -1.78188 -1.06039 12.9942 -0.242716 4.98039 -89.9504 -0.481583 -99.1246 5.34809 -7.22636e-06 -6.2814e-07 -68.5806 31.9557 -0.476096 24.3286 1.87007e-05 4.90208e-06 46.4565 -15.6336 -104.366 22.2916 -9.88446e-07 4.63217e-06 9.10883 5.30712 -0.128409 12.9945 -0.242716 -4.98039 89.8013 3.51276 -101.759 -5.34813 -1.25947e-06 -3.79883e-06 -67.5193 33.7536 2.75447 -24.3289 0.000322201 -8.65921e-06 35.6064 -11.8523 -106.004 -22.2915 -0.000108084 -4.47941e-06 16.1646 5.52669 -7.64991 -2.19248 -6.46944 -1.22534e-07 175.884 -5.79558 -19.0048 39.0811 -6.73843e-06 -1.23785e-05 0.0219929 -0.0617789 13.5068 40.9854 -6.48686e-06 -1.26872e-05 4.23033 6.20075 -50.8258 11.7543 -2.30145e-07 3.05095e-06 -0.0517946 0.0430259 -16.5749 -2.19251 6.46944 -1.45247e-06 -171.147 18.0285 165.867 -39.0811 -0.00228153 -0.0401928 0.00915411 0.00815754 14.2563 -40.9854 7.72618e-06 5.99936e-06 4.99267 -18.9527 -58.6639 -11.7543 -5.6619e-06 -5.58687e-06 -0.0391998 0.0197805 -16.574 
0 0 0 0 0 -0 -1.75275 92.7977 -10.1797 90.1684 -1.21415 -5.35734 15.7357 5.1072e-06 -5.51765e-07 91.3046 75.1498 -91.4503 8.98455 -0.406207 -4.3199e-07 21.9287 0.640303 -0.416805 16.3773 -1.3905e-06 -6.99897e-07 14.4764 -0.0388976 -0.204051 6.45672 -1.25837e-06 -1.02172e-07 21.3001 -1.83058 -0.993857 12.9942 -0.242716 4.98039 -89.9473 -0.513036 -99.1309 5.34809 -7.22636e-06 -6.2814e-07 -68.621 31.9806 -0.557796 24.3286 1.87007e-05 4.90208e-06 46.5487 -15.5417 -104.243 22.2916 -9.88446e-07 4.63217e-06 8.89601 5.30051 0.0592909 12.9945 -0.242716 -4.98039 89.7996 3.4866 -101.708 -5.34813 -1.25947e-06 -3.79883e-06 -67.4779 33.7574 2.66094 -24.3289 0.000322201 -8.65921e-06 35.6246 -11.7007 -105.802 -22.2915 -0.000108084 -4.47941e-06 16.1186 5.52552 -7.59795 -2.19248 -6.46944 -1.22534e-07 175.876 -5.85927 -18.9558 39.0811 -6.73843e-06 -1.23785e-05 0.0225747 -0.0630532 13.7052 40.9854 -6.48686e-06 -1.26872e-05 4.25562 6.18632 -50.9974 11.7543 -2.30145e-07 3.05095e-06 -0.0502003 0.0416678 -16.575 -2.19251 6.46944 -1.45247e-06 -171.204 18.0221 165.973 -39.0811 -0.00228153 -0.0401928 0.00947253 0.00801635 14.3599 -40.9854 7.72618e-06 5.99936e-06 4.93235 -18.9422 -58.7841 -11.7543 -5.6619e-06 -5.58687e-06 -0.0426727 0.0215089 -16.5741 
0 0 0 0 0 -0 -1.73431 92.799 -10.076 90.196 -1.2114 -5.2535 15.7357 5.1072e-06 -5.51765e-07 91.2925 75.2294 -91.4445 8.98455 -0.406207 -4.3199e-07 21.7695 0.63043 -0.426379 16.3773 -1.3905e-06 -6.99897e-07 14.4951 -0.0773099 -0.191469 6.45672 -1.25837e-06 -1.02172e-07 21.4361 -1.88315 -0.905984 12.9942 -0.242716 4.98039 -89.9445 -0.535241 -99.081 5.34809 -7.22636e-06 -6.2814e-07 -68.6856 32.0414 -0.669068 24.3286 1.87007e-05 4.90208e-06 46.6588 -15.4019 -104.071 22.2916 -9.88446e-07 4.63217e-06 8.66397 5.29432 0.231089 12.9945 -0.242716 -4.98039 89.7964 3.46551 -101.636 -5.34813 -1.25947e-06 -3.79883e-06 -67.4095 33.7773 2.53972 -24.3289 0.000322201 -8.65921e-06 35.6392 -11.5177 -105.562 -22.2915 -0.000108084 -4.47941e-06 16.0828 5.52457 -7.55841 -2.19248 -6.46944 -1.22534e-07 175.865 -5.81381 -18.7978 39.0811 -6.73843e-06 -1.23785e-05 0.0230703 -0.0665593 13.7558 40.9854 -6.48686e-06 -1.26872e-05 4.26499 6.14391 -51.0985 11.7543 -2.30145e-07 3.05095e-06 -0.0545566 0.0453023 -16.5747 -2.19251 6.46944 -1.45247e-06 -171.295 18.1534 166.121 -39.0811 -0.00228153 -0.0401928 0.0098359 0.0075233 14.4389 -40.9854 7.72618e-06 5.99936e-06 4.86457 -18.828 -58.9108 -11.7543 -5.6619e-06 -5.58687e-06 -0.036838 0.0186027 -16.5739 
0 0 0 0 0 -0 -1.72559 92.8098 -9.9799 90.2189 -1.22109 -5.12824 15.7357 5.1072e-06 -5.51765e-07 91.303 75.3001 -91.463 8.98455 -0.406207 -4.3199e-07 21.6281 0.63194 -0.442204 16.3773 -1.3905e-06 -6.99897e-07 14.4786 -0.136769 -0.145672 6.45672 -1.25837e-06 -1.02172e-07 21.5207 -1.94659 -0.852602 12.9942 -0.242716 4.98039 -89.9392 -0.58301 -99.0403 5.34809 -7.22636e-06 -6.2814e-07 -68.7253 32.0941 -0.772002 24.3286 1.87007e-05 4.90208e-06 46.8554 -15.257 -103.855 22.2916 -9.88446e-07 4.63217e-06 8.48692 5.29402 0.239103 12.9945 -0.242716 -4.98039 89.7961 3.45864 -101.624 -5.34813 -1.25947e-06 -3.79883e-06 -67.3848 33.7286 2.49011 -24.3289 0.000322201 -8.65921e-06 35.7639 -11.4076 -105.355 -22.2915 -0.000108084 -4.47941e-06 15.9638 5.52562 -7.60481 -2.19248 -6.46944 -1.22534e-07 175.853 -5.83447 -18.5973 39.0811 -6.73843e-06 -1.23785e-05 0.0234254 -0.0665333 13.7534 40.9854 -6.48686e-06 -1.26872e-05 4.27403 6.14477 -51.1729 11.7543 -2.30145e-07 3.05095e-06 -0.0501432 0.0416155 -16.5749 -2.19251 6.46944 -1.45247e-06 -171.385 18.1945 166.359 -39.0811 -0.00228153 -0.0401928 0.00939934 0.00716426 14.3735 -40.9854 7.72618e-06 5.99936e-06 4.82818 -18.8099 -58.9493 -11.7543 -5.6619e-06 -5.58687e-06 -0.0378765 0.0191003 -16.574 
0 0 0 0 0 -0 -1.71918 92.8032 -9.87957 90.2469 -1.22369 -4.99592 15.7357 5.1072e-06 -5.51765e-07 91.2756 75.3757 -91.4384 8.98455 -0.406207 -4.3199e-07 21.4774 0.615115 -0.443447 16.3773 -1.3905e-06 -6.99897e-07 14.4905 -0.216548 -0.102929 6.45672 -1.25837e-06 -1.02172e-07 21.5682 -2.02233 -0.829521 12.9942 -0.242716 4.98039 -89.9369 -0.603589 -99.0279 5.34809 -7.22636e-06 -6.2814e-07 -68.8023 32.1336 -0.79033 24.3286 1.87007e-05 4.90208e-06 46.9814 -15.1284 -103.687 22.2916 -9.88446e-07 4.63217e-06 8.56247 5.29079 0.329573 12.9945 -0.242716 -4.98039 89.7977 3.39831 -101.592 -5.34813 -1.25947e-06 -3.79883e-06 -67.3623 33.741 2.38323 -24.3289 0.000322201 -8.65921e-06 35.8181 -11.2604 -105.14 -22.2915 -0.000108084 -4.47941e-06 15.9963 5.52692 -7.66023 -2.19248 -6.46944 -1.22534e-07 175.843 -5.84404 -18.4936 39.0811 -6.73843e-06 -1.23785e-05 0.0246838 -0.0688112 13.9493 40.9854 -6.48686e-06 -1.26872e-05 4.28628 6.13529 -51.3406 11.7543 -2.30145e-07 3.05095e-06 -0.0512384 0.0425341 -16.5748 -2.19251 6.46944 -1.45247e-06 -171.494 18.1953 166.493 -39.0811 -0.00228153 -0.0401928 0.00995393 0.00820454 14.5307 -40.9854 7.72618e-06 5.99936e-06 4.74572 -18.8255 -59.0965 -11.7543 -5.6619e-06 -5.58687e-06 -0.0433272 0.0218564 -16.5741 
